<svg width="910" height="544" viewBox="0 0 910 544" fill="none" xmlns="http://www.w3.org/2000/svg">
<path d="M302.179 400.394C301.359 403.384 303.379 406.044 303.139 409.014C302.239 419.974 302.579 431.044 300.319 441.894C299.789 444.454 300.129 446.694 302.649 448.294C304.529 449.484 305.849 451.304 306.789 453.364C308.049 456.124 310.049 458.334 312.619 459.824C314.709 461.044 315.199 462.674 314.749 464.764C314.279 466.934 312.349 467.094 310.659 467.134C305.229 467.274 299.919 466.314 294.679 464.964C292.649 464.444 292.279 463.294 292.969 461.374C293.989 458.514 294.449 455.494 295.519 452.614C296.799 449.164 297.119 445.724 294.729 442.154C293.099 439.714 292.559 436.444 291.909 433.464C290.539 427.154 286.749 421.834 284.869 415.754C284.439 414.354 284.059 412.924 283.749 411.494C282.859 407.434 280.969 406.454 277.129 408.254C274.249 409.604 271.419 411.074 268.579 412.514C266.169 413.744 264.279 413.204 263.039 410.824C261.019 406.954 258.169 406.374 254.119 407.704C249.549 409.214 244.649 409.834 243.509 415.804C243.299 416.914 241.929 417.244 240.919 417.694C239.489 418.324 238.609 419.384 238.139 420.904C236.779 425.244 233.479 427.004 229.219 427.214C223.469 427.504 217.699 427.584 211.949 427.894C207.749 428.114 207.119 429.444 208.429 433.454C209.519 436.794 206.469 437.184 204.489 437.884C202.919 438.434 201.089 438.174 199.399 438.424C191.969 439.524 188.489 443.234 187.119 450.694C186.289 455.194 185.229 459.584 187.009 464.074C187.329 464.884 187.299 465.874 186.639 466.514C184.149 468.914 181.089 467.844 178.249 467.624C176.189 467.464 175.059 466.014 174.789 463.924C174.009 457.824 175.339 452.534 180.409 448.574C182.439 446.994 184.019 445.194 182.989 442.304C182.009 439.544 179.759 438.634 177.199 438.604C167.269 438.514 157.309 438.204 147.399 438.684C141.729 438.964 136.099 438.614 130.539 438.174C123.379 437.604 117.009 441.064 110.029 441.024C106.819 441.004 103.669 440.884 100.529 440.284C99.5891 440.104 98.4392 440.044 98.3692 438.734C98.3092 437.664 99.2991 437.424 100.039 437.024C101.269 436.364 103.339 436.184 102.969 434.304C102.599 432.434 100.489 432.204 99.0191 432.344C93.8491 432.814 88.789 431.774 83.689 431.504C81.189 431.374 79.379 430.794 79.199 427.864C79.109 426.414 78.2492 425.054 76.8292 424.914C71.3892 424.384 71.1592 420.114 71.3192 416.494C72.4392 390.354 69.579 364.284 70.199 338.164C70.289 334.374 70.629 330.384 69.649 326.814C68.159 321.394 72.409 316.614 70.139 310.934C68.179 306.044 68.8791 300.294 69.0391 294.894C69.1691 290.674 70.349 288.984 74.439 289.134C88.079 289.644 101.569 286.864 115.209 287.524C119.839 287.744 124.399 288.004 129.089 287.134C134.389 286.154 139.219 289.564 144.439 290.254C145.749 290.424 145.989 292.144 145.889 293.354C145.439 299.364 147.379 305.514 144.499 311.424C143.379 313.724 148.399 318.304 152.029 318.334C160.489 318.414 168.959 318.324 177.419 318.344C184.529 318.364 191.649 318.434 198.759 318.474C200.779 318.484 202.219 319.224 203.879 320.644C206.079 322.534 209.139 323.494 211.929 324.584C212.969 324.994 213.089 323.614 213.409 322.864C215.209 318.764 215.879 314.384 216.289 309.984C216.729 305.164 219.039 302.234 222.999 299.104C232.339 291.734 243.589 291.144 254.249 288.424C260.769 286.764 261.859 285.714 260.959 279.214C260.759 277.744 260.469 276.164 261.689 275.054C263.119 273.744 264.429 274.944 265.689 275.624C267.409 276.544 268.989 276.774 270.109 274.804C271.349 272.614 273.159 272.634 275.189 273.404C277.369 274.224 279.519 275.144 281.939 274.934C290.159 274.244 293.759 282.174 295.379 288.334C295.529 288.914 295.559 289.584 295.419 290.164C292.629 301.654 295.749 313.444 293.609 325.004C292.899 328.804 293.299 332.814 292.729 336.714C292.429 338.764 293.359 340.554 294.669 342.104C297.619 345.614 299.579 349.584 301.069 353.944C303.329 360.544 307.839 366.084 313.759 369.124C318.289 371.444 324.119 371.644 329.559 371.494C335.999 371.314 341.909 373.074 347.209 376.764C348.149 377.424 349.819 377.974 349.009 379.464C348.259 380.854 347.059 379.694 346.149 379.234C344.019 378.144 341.909 378.354 339.729 379.074C336.799 380.044 334.119 379.514 331.969 377.254C330.139 375.334 327.949 374.624 325.359 374.614C320.119 374.604 315.019 374.184 310.039 377.094C307.199 378.754 303.359 379.454 300.479 375.664C298.809 373.464 295.929 373.564 293.299 373.734C292.279 373.804 291.239 373.944 290.939 375.084C290.569 376.474 291.089 377.484 292.599 377.814C292.669 378.004 292.789 378.164 292.949 378.304C294.339 382.064 295.829 385.764 298.589 388.784L298.859 388.614L298.589 388.774C299.449 392.364 299.659 396.154 302.029 399.244C302.049 399.644 302.109 400.014 302.179 400.394ZM100.759 427.624C104.869 428.404 108.929 426.294 113.229 426.344C114.009 426.354 114.809 426.204 114.849 425.274C114.899 424.324 114.049 424.124 113.309 424.074C110.989 423.894 108.669 423.654 106.339 423.664C102.799 423.694 99.2491 423.854 95.7091 424.084C94.4391 424.164 93.1492 424.744 93.3092 426.304C93.4692 427.834 94.7992 428.104 96.0992 428.044C97.5692 427.984 99.0291 427.794 100.759 427.624ZM288.759 367.274C289.769 367.404 290.749 367.394 291.339 366.374C291.829 365.524 291.589 364.644 291.059 363.964C289.319 361.764 287.589 359.534 285.669 357.494C284.519 356.274 283.539 356.784 282.979 358.344C281.379 362.844 283.989 366.904 288.759 367.274Z" fill="#0F0B0C"/>
<path d="M714.119 418.054C715.279 416.844 715.009 415.294 715.019 413.864C715.099 371.664 714.699 329.474 713.969 287.284C713.909 284.044 713.749 280.854 717.389 279.094C718.629 278.494 718.539 277.104 718.509 275.824C718.369 269.944 718.279 264.054 718.229 258.164C718.189 253.344 719.169 252.154 724.309 252.034C731.909 251.864 739.509 252.004 747.099 251.234C755.779 250.364 764.459 250.424 773.179 251.034C778.649 251.424 784.189 250.664 789.699 250.704C796.029 250.744 796.759 251.654 796.799 258.064C796.819 261.254 796.879 264.444 796.899 267.634C796.929 272.034 797.179 276.094 799.779 280.214C802.329 284.274 802.869 289.494 802.779 294.454C802.599 304.494 802.259 314.524 802.059 324.564C801.949 329.684 802.369 329.884 807.379 330.064C818.799 330.474 830.159 329.194 841.559 329.094C853.729 328.984 865.759 331.054 877.909 331.074C880.549 331.074 881.599 332.524 881.579 335.054C881.529 341.184 881.529 347.324 881.509 353.454C881.499 357.864 882.239 358.534 886.589 358.674C892.959 358.894 899.329 359.264 905.699 359.524C908.039 359.624 909.389 360.634 909.489 363.064C909.589 365.514 909.769 367.964 909.759 370.414C909.719 387.834 909.389 405.254 909.719 422.674C909.839 428.784 909.449 434.864 909.509 440.964C909.549 444.774 907.529 447.084 903.849 448.044C901.189 448.734 898.479 448.644 895.799 448.504C864.459 446.844 833.119 445.164 801.789 443.464C797.629 443.234 793.469 442.964 789.309 442.614C785.879 442.324 782.639 441.714 779.639 439.614C776.519 437.434 772.509 438.134 768.909 437.584C755.919 435.594 742.779 435.444 729.699 434.564C725.789 434.304 721.899 433.704 717.999 433.314C714.559 432.974 713.389 431.064 713.839 427.764C714.119 425.734 714.919 423.684 713.909 421.624C713.969 420.434 714.039 419.244 714.119 418.054ZM872.389 339.414C874.119 339.304 874.979 338.254 874.999 336.594C875.019 335.064 874.209 333.994 872.609 333.994C870.899 334.004 869.919 335.044 869.919 336.754C869.929 338.284 870.799 339.194 872.389 339.414Z" fill="#0F0B0C"/>
<path d="M487.879 428.144C478.699 434.204 470.739 441.444 473.639 452.344C476.029 461.344 474.519 470.614 474.249 479.804C474.009 488.114 474.519 496.454 474.759 504.774C474.799 506.194 475.659 507.334 476.719 508.204C479.539 510.514 480.839 513.594 481.539 517.064C482.189 520.304 482.889 523.524 483.669 526.734C484.449 529.944 482.869 532.034 480.079 532.514C468.139 534.544 456.509 538.504 444.249 538.574C440.599 538.594 437.019 539.934 433.289 538.904C429.909 537.984 426.519 536.604 425.999 533.044C425.439 529.194 426.179 525.144 429.929 522.574C431.659 521.384 433.509 520.084 435.559 519.984C441.279 519.694 445.169 516.294 449.209 512.864C451.619 510.814 453.799 508.444 456.739 507.024C459.159 505.854 459.339 503.534 459.649 501.104C461.259 488.264 459.119 475.704 457.319 463.064C456.179 455.074 455.939 446.964 454.749 438.954C454.099 434.574 455.559 430.774 458.839 427.304C466.079 419.654 471.759 410.724 477.819 402.134C483.089 394.674 489.829 388.584 495.789 381.764C500.669 376.184 504.869 370.254 503.839 362.094C503.449 358.954 503.979 355.704 503.239 352.574C502.739 350.484 501.849 348.754 499.189 350.164C498.439 350.164 497.699 350.174 496.949 350.174C494.179 349.154 491.589 348.994 489.579 351.694C489.229 352.144 488.879 352.594 488.529 353.054C487.059 356.434 486.619 360.444 482.749 362.464C481.929 360.594 482.319 358.754 482.379 356.944C482.469 353.914 483.839 350.994 483.229 347.894C484.129 344.094 484.979 340.284 485.149 336.354C487.869 331.804 486.799 326.944 486.289 322.134C486.399 320.244 486.499 318.354 486.609 316.454C488.269 314.804 487.439 312.934 487.079 311.114C487.169 310.194 487.249 309.274 487.339 308.354C488.509 307.454 488.459 306.374 487.809 305.204C487.899 304.044 487.989 302.884 488.079 301.724C488.769 301.294 488.909 300.734 488.499 300.034C488.579 298.814 488.729 297.604 488.739 296.384C488.769 292.324 488.009 291.834 483.829 293.114C482.909 292.714 482.059 292.624 481.449 293.634C476.929 294.214 472.609 293.094 468.269 292.124C467.249 290.234 465.649 289.694 463.629 290.174C462.729 289.834 461.829 289.504 460.939 289.164C459.829 287.294 458.499 285.624 456.469 284.664C456.369 284.254 456.269 283.854 456.159 283.444C456.649 280.404 454.929 278.694 452.529 277.404C451.729 274.174 449.379 271.714 448.179 268.674C447.739 265.744 446.469 263.114 445.109 260.544C442.079 254.784 443.759 249.714 449.609 246.894C451.499 245.984 453.869 244.844 453.249 242.444C452.479 239.454 451.519 235.954 447.989 235.024C444.809 234.184 443.839 232.104 443.869 229.364C443.919 224.934 444.129 220.484 448.259 217.474C449.969 216.234 449.939 214.524 448.759 212.964C445.309 208.414 441.639 204.584 435.189 204.044C429.459 203.564 424.149 201.094 419.659 197.194C418.179 195.904 418.499 195.284 419.779 194.054C423.229 190.724 427.539 191.924 430.929 192.834C439.159 195.034 447.519 195.564 455.869 196.504C459.019 196.854 462.109 197.804 465.209 198.554C466.549 198.884 467.859 199.204 469.169 198.594C472.309 197.124 474.959 198.384 477.359 200.234C479.479 201.864 481.259 203.924 484.089 204.484C485.119 204.684 485.629 205.664 485.679 206.734C485.879 210.854 483.879 214.274 482.069 217.744C481.969 217.944 481.689 218.204 481.519 218.194C476.859 217.724 472.469 221.224 467.579 218.814C463.409 216.754 462.279 217.334 459.759 221.224C456.029 226.974 457.959 233.314 464.269 236.144C465.199 236.564 466.509 236.314 467.019 237.614C460.069 237.524 459.929 237.864 462.599 244.524C465.359 251.434 468.249 258.324 470.399 265.434C471.919 270.454 477.049 271.574 480.149 267.404C482.519 264.224 485.179 263.484 488.679 263.954C490.579 264.204 492.039 263.434 493.089 261.884C495.019 259.054 496.879 256.184 498.819 253.364C500.669 250.664 503.499 248.964 506.229 247.564C509.669 245.794 513.259 244.054 517.149 243.324C519.489 242.884 521.309 242.004 521.819 239.364C522.449 236.154 523.039 232.994 520.079 230.534C519.329 229.914 518.429 229.464 517.659 228.864C514.499 226.404 514.119 224.014 517.419 221.744C521.009 219.274 523.109 215.844 525.429 212.454C526.199 211.324 526.989 210.024 528.259 209.644C533.469 208.104 537.549 204.294 542.709 202.644C546.219 201.514 549.749 201.984 552.759 203.404C558.789 206.264 563.979 210.384 567.209 216.474C570.129 221.964 569.169 228.354 565.429 233.294C561.729 238.174 559.449 243.914 557.019 249.504C556.269 251.234 557.049 252.834 558.709 253.924C568.799 260.594 573.379 270.304 575.439 281.994C577.379 293.004 576.509 303.944 576.609 314.934C576.669 321.164 576.969 327.374 579.039 333.364C579.429 334.484 579.329 335.784 579.379 337.004C579.619 342.734 578.789 348.484 579.679 354.224C579.919 355.754 579.829 357.494 579.359 358.964C576.339 368.294 575.559 377.864 576.009 387.584C576.139 390.454 575.449 392.754 572.539 394.244C568.269 396.434 567.809 396.434 565.149 392.324C564.029 390.594 562.639 389.274 560.339 389.604C558.149 389.914 557.259 391.624 556.809 393.394C555.899 396.954 555.009 400.554 554.539 404.184C553.249 414.064 550.459 423.584 548.209 433.244C545.849 443.344 546.209 452.944 555.249 460.784C561.369 466.104 566.789 472.454 569.179 480.724C571.299 488.054 577.179 493.284 580.319 500.054C582.379 504.504 584.289 508.964 588.459 512.044C590.199 513.324 590.089 515.334 588.419 516.834C586.779 518.304 586.969 519.704 588.019 521.374C589.279 523.354 590.109 525.534 590.539 527.854C590.699 528.714 591.009 529.454 591.659 530.104C594.709 533.154 594.449 532.944 590.989 535.384C582.519 541.364 572.899 543.164 562.899 543.894C561.799 543.974 560.689 544.034 559.589 543.964C557.149 543.794 554.319 543.944 553.219 541.244C552.099 538.504 552.609 535.674 554.529 533.274C557.279 529.834 560.789 527.034 563.029 523.154C563.939 521.564 564.889 519.964 566.029 518.554C570.799 512.654 570.519 509.384 566.579 502.554C560.469 491.984 552.409 482.904 545.299 473.104C542.149 468.764 537.479 466.074 533.629 462.474C529.879 458.974 527.829 455.114 527.979 449.894C528.079 446.364 527.649 442.784 527.159 439.274C525.669 428.564 528.919 418.024 528.159 407.354C527.999 405.154 528.109 402.934 527.999 400.734C527.919 399.074 527.459 397.484 525.649 396.944C524.069 396.474 522.849 397.314 521.739 398.414C518.259 401.874 514.849 405.404 511.219 408.704C506.129 413.324 500.429 417.164 494.799 421.094C492.949 422.384 490.589 423.274 490.069 425.914C489.319 426.664 488.599 427.404 487.879 428.144Z" fill="#0F0B0C"/>
<path d="M135.139 90.3241C135.249 90.1141 135.349 89.9041 135.449 89.6941C135.879 89.6141 136.089 89.3841 135.949 88.9241C136.239 88.1541 136.529 87.3741 136.829 86.6041C138.589 86.0141 138.989 84.3841 139.619 82.9441C142.609 76.0541 144.569 68.8241 146.469 61.5941C148.319 54.5741 151.129 47.9041 153.509 41.0841C154.579 38.0241 156.399 37.8741 158.729 40.2741C159.409 40.9741 160.099 41.7041 160.629 42.5241C165.139 49.5141 170.299 56.0841 174.269 63.4441C177.169 68.8341 179.949 74.3641 183.519 79.3041C190.809 89.3741 196.209 100.514 202.169 111.314C206.079 118.394 209.989 125.474 214.479 132.184C216.639 135.414 216.899 138.434 215.779 141.904C214.499 145.894 212.539 149.584 210.729 153.334C204.189 166.904 201.599 181.744 197.119 195.964C192.999 209.034 189.779 222.414 186.799 235.824C186.299 238.084 185.649 240.554 182.959 241.204C180.089 241.904 178.519 239.944 176.939 237.914C174.379 234.624 171.889 231.234 168.949 228.314C156.779 216.244 146.529 202.724 138.099 187.834C131.159 175.574 124.609 163.094 117.589 150.894C114.729 145.914 114.429 140.954 116.779 136.144C122.389 124.684 125.629 112.234 131.799 100.994C133.549 97.7841 135.529 94.3441 135.139 90.3241ZM189.269 137.324C189.419 135.624 189.089 133.894 188.209 132.414C181.639 121.234 176.219 109.364 168.189 99.0641C164.349 94.1341 161.129 94.5741 158.559 100.244C155.429 107.164 153.669 114.634 150.009 121.334C146.779 127.254 144.059 133.364 142.029 139.834C140.899 143.424 141.519 146.214 143.459 149.154C147.369 155.074 151.189 161.064 154.989 167.054C157.549 171.084 159.619 175.454 162.789 179.064C164.749 181.294 166.649 184.514 170.209 183.564C173.369 182.724 173.909 179.324 174.949 176.604C179.199 165.514 181.889 153.844 187.699 143.354C188.709 141.514 189.399 139.544 189.269 137.324Z" fill="#0F0B0C"/>
<path d="M327.259 17.554C327.119 16.994 326.979 16.444 326.839 15.884C326.399 11.744 324.109 8.04404 324.049 3.81404C324.029 2.61404 323.419 1.17402 324.549 0.354021C325.989 -0.685979 326.969 0.834046 328.079 1.47405C332.599 4.07405 335.749 8.32402 339.959 11.294C346.359 15.804 352.789 20.284 359.139 24.864C366.279 30.014 373.109 35.594 380.839 39.874L381.049 40.074C382.139 42.644 384.239 44.074 386.739 45.034L386.949 45.214C390.119 49.264 393.989 52.574 398.099 55.634C402.599 58.974 407.179 62.184 411.369 65.984C414.739 69.034 417.679 72.764 422.129 74.504C422.369 74.644 422.609 74.774 422.849 74.914C423.959 76.034 425.119 77.114 426.169 78.284C427.689 79.964 428.159 81.874 427.229 84.054C425.609 87.884 424.349 91.914 422.379 95.564C415.759 107.854 408.939 120.034 402.109 132.204C400.739 134.654 399.239 137.114 397.389 139.194C390.519 146.924 385.079 155.664 379.309 164.164C375.189 170.244 371.529 176.634 367.549 182.804C366.389 184.604 365.079 187.004 362.609 186.614C359.989 186.194 360.499 183.364 360.069 181.444C356.649 166.334 355.749 150.924 354.559 135.544C353.739 124.944 354.909 114.234 352.439 103.714C351.349 99.064 349.539 94.664 348.719 89.904C347.419 82.314 345.619 74.784 343.609 67.344C339.809 53.294 334.049 39.854 330.249 25.784C329.509 22.994 328.929 20.054 327.259 17.554ZM397.409 85.494C397.389 82.444 394.959 79.854 392.229 77.834C386.929 73.914 381.969 69.494 376.039 66.464C374.179 65.514 372.339 64.204 370.259 65.754C368.349 67.174 368.319 69.314 368.539 71.444C368.639 72.414 368.819 73.394 369.109 74.324C372.879 86.234 376.479 98.174 377.359 110.754C377.529 113.134 378.449 115.514 381.109 116.094C383.969 116.714 384.799 114.174 385.769 112.274C389.329 105.304 392.799 98.294 396.269 91.284C397.039 89.724 397.379 88.044 397.409 85.494Z" fill="#0F0B0C"/>
<path d="M763.999 153.554C763.549 154.064 763.099 154.574 762.649 155.094C762.229 155.314 761.639 155.414 761.409 155.754C756.889 162.504 750.869 167.914 745.349 173.774C743.709 175.514 742.229 177.524 741.979 180.094L741.989 180.084C739.339 181.444 738.879 184.664 736.659 186.404C735.999 186.924 735.449 187.864 734.509 187.544C733.319 187.144 733.559 185.954 733.619 185.014C733.769 182.544 734.559 180.214 735.419 177.914C740.129 165.174 744.819 152.434 749.529 139.694C751.569 134.184 753.599 128.674 755.759 123.214C758.909 115.254 763.269 107.794 765.839 99.6041C773.319 75.7441 779.349 51.5441 782.809 26.7441C783.169 24.1841 784.059 21.8241 787.549 22.8941C787.559 23.0841 787.629 23.2641 787.759 23.4141C787.839 24.6241 787.789 25.8641 788.029 27.0541C790.249 38.2441 793.579 49.1641 796.889 60.0541C801.749 76.0441 806.339 92.0241 806.889 108.874C807.039 113.444 808.159 117.864 809.259 122.254C810.499 127.224 814.089 128.174 817.539 124.434C820.109 121.654 822.719 118.814 824.719 115.624C833.049 102.364 841.809 89.3541 848.749 75.2641C850.599 71.5141 852.659 67.8841 855.069 64.5041C856.129 63.0141 857.349 60.3741 859.359 61.1841C861.339 61.9841 860.489 64.7441 860.199 66.5641C858.949 74.4041 856.699 82.0141 855.399 89.8941C852.929 104.914 847.329 119.134 841.719 133.284C837.569 143.764 832.499 153.884 829.079 164.654C824.249 179.844 821.009 195.454 817.509 210.984C816.749 214.354 815.479 217.544 814.199 220.714C813.739 221.874 813.439 223.744 811.809 223.614C809.929 223.474 810.039 221.484 809.769 220.134C808.329 213.034 807.629 205.834 806.679 198.664C803.699 176.324 798.859 154.254 797.389 131.694C797.239 129.404 796.549 127.094 795.789 124.914C794.729 121.854 792.159 120.914 789.729 122.954C785.989 126.084 782.649 129.674 781.129 134.534L781.109 134.554C777.819 136.114 775.349 138.534 773.699 141.774C772.969 142.564 772.239 143.354 771.509 144.134C770.319 144.354 769.869 145.094 770.039 146.254L770.009 146.304C767.509 146.294 766.979 147.844 767.139 149.934L767.059 150.014C765.039 150.344 764.129 151.614 763.999 153.554Z" fill="#0F0B0C"/>
<path d="M256.659 119.214C256.799 119.424 256.929 119.624 257.059 119.834C257.169 120.534 257.089 121.364 257.429 121.934C261.349 128.574 262.499 136.524 267.329 142.744C268.689 144.484 269.359 146.664 269.879 148.824C271.519 155.724 274.979 161.824 278.359 167.934C279.819 170.574 281.519 173.524 284.619 174.414C292.649 176.724 300.139 180.474 308.089 182.944C316.149 185.454 324.349 187.564 332.069 191.084C333.319 191.654 335.229 192.144 335.009 193.944C334.749 196.074 332.629 196.094 331.009 196.524C330.539 196.654 330.039 196.714 329.559 196.744C318.099 197.374 307.329 201.554 296.039 203.234C283.199 205.144 271.039 210.184 258.189 212.304C250.759 213.534 248.659 212.264 247.529 204.824C247.289 203.254 247.349 201.644 247.239 200.054C246.879 194.674 246.969 189.214 246.049 183.934C243.799 171.064 242.099 158.174 237.789 145.584C231.339 126.754 229.429 106.854 227.359 87.0841C226.859 82.2941 227.329 77.2941 224.969 72.8041C224.919 72.0641 224.869 71.3341 224.819 70.5941C225.769 62.7441 224.179 54.9741 224.119 47.1541C224.119 46.8741 223.699 46.5941 223.469 46.3141C223.409 45.5641 223.359 44.8141 223.299 44.0641C224.079 42.8241 223.659 41.4441 223.759 40.1241C223.909 38.2641 222.799 35.1541 224.649 34.8641C226.689 34.5541 226.999 37.7741 227.719 39.6141C233.509 54.3541 236.139 69.9841 240.659 85.0841C242.009 89.5941 242.879 94.3441 246.199 98.0341C246.429 98.6241 246.669 99.2141 246.899 99.7941C246.539 100.534 246.699 101.274 247.099 101.884C249.819 105.994 251.439 110.604 253.339 115.094C254.029 116.744 254.539 118.694 256.659 119.214Z" fill="#0F0B0C"/>
<path d="M0.00891453 86.0041C0.00891453 82.5741 -0.0210659 79.1441 0.0289341 75.7141C0.0389341 74.7741 0.00895357 73.5741 1.29895 73.3741C2.47895 73.1941 3.06885 74.1541 3.43885 75.0541C7.19885 84.3041 13.9189 92.0341 17.7189 101.084C21.2989 109.614 26.979 116.874 30.329 125.524C32.479 131.064 35.939 137.114 43.819 136.624C47.389 136.404 50.8288 135.474 54.1488 134.194C56.6988 133.204 58.139 131.094 59.049 128.544C60.639 124.094 61.4788 119.434 61.3888 114.814C61.1288 101.224 62.9489 87.9241 65.7189 74.6941C66.4389 71.2341 66.2589 67.5941 67.4589 64.1941C67.7789 63.2841 67.9188 62.1241 69.1688 62.0941C70.4588 62.0641 70.579 63.2541 70.869 64.1641C72.239 68.4741 73.579 72.7341 73.849 77.3741C74.239 84.1141 76.9188 90.4641 77.9388 97.1541C79.6488 108.414 81.7989 119.614 83.7889 130.834C84.8789 136.984 85.7589 143.184 87.2289 149.244C89.4789 158.444 90.2389 167.864 91.6989 177.164C93.5788 189.134 95.4188 201.084 98.4388 212.844C99.5288 217.074 99.649 221.554 100.109 225.934C100.229 227.104 100.309 228.584 98.9288 229.154C97.5388 229.734 96.669 228.614 95.859 227.684C89.679 220.574 83.9989 213.234 79.5389 204.754C73.6589 193.564 67.2288 182.574 58.8988 172.904C58.1788 172.064 57.4388 171.244 56.6488 170.484C53.2788 167.264 50.1188 168.014 48.6388 172.514C47.1088 177.174 46.1089 181.994 44.7589 186.704C39.3389 205.574 37.2388 225.154 32.3888 244.134C32.1788 244.964 31.9789 245.804 31.7389 246.624C31.4289 247.684 31.209 248.924 29.829 249.024C28.419 249.124 28.1589 247.884 27.6989 246.884C24.8489 240.684 23.929 233.994 22.619 227.384C19.899 213.674 19.1088 199.704 16.6688 185.924C14.7688 175.214 14.0989 164.264 11.5189 153.634C9.28893 144.464 5.95883 135.594 4.66883 126.174C2.83883 112.824 0.188915 99.5641 0.00891453 86.0041Z" fill="#0F0B0C"/>
<path d="M726.919 105.694C726.979 109.414 725.079 111.914 722.869 114.024C713.199 123.244 703.459 132.374 693.649 141.444C687.789 146.864 682.459 152.604 678.009 159.364C670.769 170.364 661.669 179.794 650.899 187.514C648.699 189.084 647.089 188.304 646.199 186.154C645.229 183.784 644.399 181.304 643.949 178.784C640.579 159.694 636.119 140.854 631.809 121.964C630.479 116.124 629.829 110.104 629.289 104.134C628.969 100.644 627.729 97.444 626.849 94.164C625.089 87.624 627.849 82.814 631.569 78.004C639.129 68.234 646.929 58.634 653.239 47.964C656.899 41.774 662.329 37.064 666.909 31.664C670.179 27.804 673.019 23.644 675.739 19.494C679.609 13.574 684.389 8.54398 688.969 3.28398C690.159 1.91398 691.309 0.103973 693.489 0.903973C695.469 1.62397 695.889 3.64397 696.089 5.46397C697.529 18.604 701.259 31.174 705.429 43.634C710.169 57.804 715.249 71.844 719.629 86.134C721.129 91.024 723.679 95.584 725.689 100.324C726.449 102.134 726.969 104.044 726.919 105.694ZM655.079 92.034C653.979 95.784 656.149 99.234 656.029 102.924C655.729 112.454 658.279 121.614 659.749 130.914C660.119 133.274 661.109 135.494 663.609 136.334C666.169 137.194 668.079 135.844 669.779 134.074C677.789 125.804 685.789 117.514 693.849 109.284C698.189 104.854 698.989 99.764 697.209 94.014C696.269 90.974 695.449 87.884 694.569 84.824C692.369 77.164 690.259 69.484 687.939 61.854C686.329 56.554 683.429 56.014 679.349 59.694C671.959 66.354 665.229 73.584 659.029 81.364C656.469 84.604 654.579 87.794 655.079 92.034Z" fill="#0F0B0C"/>
</svg>
